PathFileType	4	(x/y/z)	S10_M20_T34
DataRate	CameraRate	NumFrames	NumMarkers	Units	OrigDataRate	OrigDataStartFrame	OrigNumFrames
240	240	4	51	mm	240	268	534
Frame#	Time	Sternum			R.Acromium			L.Acromium			Top.Head			R.ASIS			L.ASIS			R.PSIS			L.PSIS			R.Great.Tro			L.Great.Tro			R.Iliac.Crest			L.Iliac.Crest			V.Sacral			R.Thigh.Upper.Post			R.Thigh.Lower.Ant			R.Thigh.Lower.Post			R.Thigh.Upper.Ant			R.Knee.Lat			R.Knee.Med			R.Shank.Upper.Post			R.Shank.Lower.Ant			R.Shank.Lower.Post			R.Shank.Upper.Ant			R.Ankle.Lat			R.Ankle.Med			R.Heel.Upper			R.Heel.Med			R.Heel.Lat			R.Toe.Lat			R.Toe.Med			R.Toe.Tip			L.Thigh.Upper.Post			L.Thigh.Lower.Ant			L.Thigh.Lower.Post			L.Thigh.Upper.Ant			L.Knee.Lat			L.Knee.Med			L.Shank.Upper.Post			L.Shank.Lower.Ant			L.Shank.Lower.Post			L.Shank.Upper.Ant			L.Ankle.Lat			L.Ankle.Med			L.Heel.Upper			L.Heel.Med			L.Heel.Lat			L.Toe.Lat			L.Toe.Med			L.Toe.Tip			Cervical.Spine			Back			
		X1	Y1	Z1	X2	Y2	Z2	X3	Y3	Z3	X4	Y4	Z4	X5	Y5	Z5	X6	Y6	Z6	X7	Y7	Z7	X8	Y8	Z8	X9	Y9	Z9	X10	Y10	Z10	X11	Y11	Z11	X12	Y12	Z12	X13	Y13	Z13	X14	Y14	Z14	X15	Y15	Z15	X16	Y16	Z16	X17	Y17	Z17	X18	Y18	Z18	X19	Y19	Z19	X20	Y20	Z20	X21	Y21	Z21	X22	Y22	Z22	X23	Y23	Z23	X24	Y24	Z24	X25	Y25	Z25	X26	Y26	Z26	X27	Y27	Z27	X28	Y28	Z28	X29	Y29	Z29	X30	Y30	Z30	X31	Y31	Z31	X32	Y32	Z32	X33	Y33	Z33	X34	Y34	Z34	X35	Y35	Z35	X36	Y36	Z36	X37	Y37	Z37	X38	Y38	Z38	X39	Y39	Z39	X40	Y40	Z40	X41	Y41	Z41	X42	Y42	Z42	X43	Y43	Z43	X44	Y44	Z44	X45	Y45	Z45	X46	Y46	Z46	X47	Y47	Z47	X48	Y48	Z48	X49	Y49	Z49	X50	Y50	Z50	X51	Y51	Z51	

268	1.1125	649.98	1287.9	332.84	530.12	1435.3	491.93	526.84	1470.3	183.68	478.48	1753	370.72	601.81	1010.8	441.41	591.27	1024.9	210.78	397.78	1039.6	362.24	400.6	1044.7	280.12	533.46	933.48	516.27	528.39	960.98	151.08	510.18	1095.9	489.22	521.19	1102.6	184.96	375.6	1009.3	323.97	556.1	721.03	497.13	610.24	647.28	451.48	550.47	632.56	482.84	616.93	738.21	461.45	549.38	508.58	434.3	525.62	519.75	310.41	447.4	294.14	438.13	501.2	223.32	411.22	437.69	221.22	428.94	518.56	298.14	418.48	428.83	113.77	403.4	438.37	123.89	323.46	360.82	68.658	359.37	368.15	39.997	333.47	365.3	46.289	395.16	538	41.485	435.08	565.39	41.614	324.59	624.85	56.044	366.68	576.6	684.72	145.66	672.12	633.32	153.34	611.85	597.09	161.48	646.47	719.18	137.25	659.9	532.24	161.09	696.91	521.52	289.96	496.59	402.95	167.42	498.86	292.22	161.86	455.12	337.25	171.83	541.83	356.55	158.07	406.74	215.08	172.22	435.56	211.27	253.94	340.23	221.04	223.88	334.93	186.62	254.91	325.55	194.25	191.01	461.37	91.857	135.34	499.79	79.551	235.86	546.79	67.399	185.38	448.46	1503.3	352.36	366.8	1295.8	332.38
269	1.1167	654.28	1288.3	332.9	535.06	1435.9	491.98	530.53	1470.3	183.71	483.62	1753.5	370.42	606.05	1010.9	441.65	595.8	1025.5	211.03	402.12	1039.7	362.08	405.02	1045	279.98	537.33	933.43	516.24	533.3	961.8	151.04	514.42	1096	489.28	525.62	1103.1	185.18	380.01	1009.5	323.74	558.44	720.94	497.03	612.11	646.75	451.52	552.12	632.51	482.7	619.52	737.6	461.53	550.06	508.56	434.36	526.88	519.67	310.31	447.63	294.32	438.07	501.29	223.43	411.28	437.78	221.39	428.83	518.81	298.24	418.56	428.84	113.86	403.37	438.39	123.96	323.4	360.82	68.742	359.33	368.16	40.065	333.41	365.31	46.393	395.09	538.02	41.487	435.06	565.44	41.603	324.54	624.89	55.948	366.66	583.86	685.88	145.06	679.84	635.29	153.81	619.58	598.54	161.11	653.57	720.94	137.62	668.12	533.76	161.43	704.13	523.47	290.45	506.97	400.89	167.06	511.6	290.22	161.8	466.88	334.32	171.46	553.22	355.42	158.06	421	211.27	171.8	449.68	207.97	253.59	354.07	215.39	223.4	349.62	180.78	254.34	340.21	188.35	190.46	478.71	89.664	134.75	517.22	77.957	235.32	564.68	67.208	184.88	452.79	1503.5	352.65	371.12	1296	332.94
270	1.1208	658.59	1288.6	332.96	540.01	1436.6	492.01	534.24	1470.3	183.75	488.76	1753.9	370.11	610.28	1010.9	441.86	600.32	1026.1	211.25	406.47	1039.8	361.93	409.44	1045.3	279.84	541.22	933.36	516.2	538.18	962.57	150.99	518.67	1095.9	489.32	530.07	1103.6	185.38	384.43	1009.6	323.51	560.79	720.83	496.93	613.99	646.21	451.56	553.79	632.45	482.56	622.11	736.97	461.57	550.74	508.53	434.41	528.12	519.58	310.23	447.86	294.5	438	501.37	223.55	411.35	437.86	221.56	428.71	519.05	298.33	418.66	428.86	113.96	403.34	438.4	124.04	323.35	360.82	68.825	359.28	368.18	40.132	333.35	365.33	46.499	395.02	538.04	41.49	435.04	565.48	41.591	324.49	624.93	55.857	366.64	591.07	687.01	144.47	687.48	637.18	154.32	627.24	599.92	160.76	660.61	722.62	138.01	676.24	535.23	161.77	711.21	525.33	290.96	517.38	398.75	166.67	524.41	288.19	161.74	478.7	331.32	171.06	564.64	354.23	158.04	435.37	207.44	171.35	463.89	204.64	253.22	368.07	209.72	222.87	364.47	174.94	253.74	355.05	182.44	189.87	496.13	87.517	134.15	534.7	76.411	234.79	582.58	67.068	184.39	457.14	1503.7	352.92	375.46	1296.2	333.5
271	1.125	662.91	1288.9	332.99	544.98	1437.2	492.03	537.96	1470.3	183.78	493.88	1754.2	369.79	614.51	1011	442.06	604.82	1026.6	211.44	410.82	1039.9	361.77	413.85	1045.5	279.71	545.11	933.25	516.15	543.03	963.28	150.93	522.91	1095.9	489.35	534.52	1104	185.56	388.84	1009.7	323.28	563.15	720.71	496.82	615.88	645.66	451.58	555.48	632.38	482.41	624.7	736.33	461.6	551.43	508.49	434.46	529.33	519.48	310.14	448.08	294.68	437.93	501.45	223.66	411.44	437.94	221.72	428.59	519.28	298.42	418.76	428.89	114.05	403.3	438.42	124.11	323.29	360.82	68.906	359.22	368.19	40.194	333.28	365.35	46.607	394.94	538.07	41.492	435.01	565.51	41.579	324.44	624.97	55.772	366.63	598.23	688.09	143.92	695.03	639.01	154.84	634.83	601.26	160.44	667.59	724.25	138.43	684.28	536.63	162.13	718.15	527.1	291.46	527.82	396.53	166.24	537.28	286.13	161.67	490.59	328.26	170.62	576.08	353	158.01	449.85	203.61	170.88	478.21	201.31	252.82	382.24	204.03	222.3	379.48	169.1	253.09	370.07	176.54	189.24	513.63	85.419	133.57	552.22	74.92	234.27	600.5	66.985	183.93	461.51	1503.8	353.19	379.8	1296.4	334.05
